<svg xmlns="http://www.w3.org/2000/svg" viewBox="10.9155 1058.31 41.16 25.69">
	<path d="M 19.6637 1061.86 H 17.6417 C 17.6048 1061.59 17.5294 1061.36 17.4155 1061.16 C 17.3016 1060.95 17.1554 1060.78 16.9769 1060.63 C 16.7984 1060.49 16.5922 1060.38 16.3583 1060.3 C 16.1275 1060.22 15.8767 1060.18 15.6058 1060.18 C 15.1165 1060.18 14.6902 1060.31 14.3271 1060.55 C 13.9639 1060.79 13.6823 1061.14 13.4822 1061.6 C 13.2822 1062.06 13.1822 1062.62 13.1822 1063.27 C 13.1822 1063.95 13.2822 1064.51 13.4822 1064.97 C 13.6854 1065.43 13.9685 1065.78 14.3317 1066.01 C 14.6948 1066.24 15.1149 1066.36 15.592 1066.36 C 15.8597 1066.36 16.1075 1066.33 16.3352 1066.25 C 16.5661 1066.18 16.7707 1066.08 16.9492 1065.95 C 17.1277 1065.81 17.2755 1065.64 17.3924 1065.44 C 17.5124 1065.25 17.5955 1065.02 17.6417 1064.77 L 19.6637 1064.78 C 19.6114 1065.21 19.4806 1065.63 19.2713 1066.03 C 19.0651 1066.43 18.7866 1066.79 18.4357 1067.11 C 18.0879 1067.42 17.6725 1067.67 17.1893 1067.86 C 16.7092 1068.04 16.166 1068.13 15.5597 1068.13 C 14.7164 1068.13 13.9624 1067.94 13.2976 1067.56 C 12.6359 1067.18 12.1127 1066.62 11.728 1065.9 C 11.3464 1065.18 11.1555 1064.3 11.1555 1063.27 C 11.1555 1062.24 11.3494 1061.36 11.7372 1060.64 C 12.125 1059.92 12.6513 1059.37 13.3161 1058.99 C 13.9808 1058.61 14.7287 1058.42 15.5597 1058.42 C 16.1075 1058.42 16.6153 1058.49 17.0831 1058.65 C 17.554 1058.8 17.971 1059.03 18.3342 1059.32 C 18.6973 1059.61 18.9928 1059.97 19.2205 1060.4 C 19.4513 1060.82 19.5991 1061.31 19.6637 1061.86 Z M 24.264 1068.14 C 23.5469 1068.14 22.9268 1067.99 22.4036 1067.68 C 21.8835 1067.37 21.4818 1066.95 21.1987 1066.4 C 20.9155 1065.85 20.774 1065.21 20.774 1064.48 C 20.774 1063.75 20.9155 1063.11 21.1987 1062.56 C 21.4818 1062.01 21.8835 1061.58 22.4036 1061.28 C 22.9268 1060.97 23.5469 1060.82 24.264 1060.82 C 24.9811 1060.82 25.5997 1060.97 26.1199 1061.28 C 26.6431 1061.58 27.0462 1062.01 27.3294 1062.56 C 27.6125 1063.11 27.7541 1063.75 27.7541 1064.48 C 27.7541 1065.21 27.6125 1065.85 27.3294 1066.4 C 27.0462 1066.95 26.6431 1067.37 26.1199 1067.68 C 25.5997 1067.99 24.9811 1068.14 24.264 1068.14 Z M 24.2733 1066.62 C 24.5995 1066.62 24.8719 1066.52 25.0904 1066.34 C 25.3089 1066.15 25.4735 1065.89 25.5843 1065.57 C 25.6982 1065.25 25.7551 1064.88 25.7551 1064.47 C 25.7551 1064.06 25.6982 1063.69 25.5843 1063.37 C 25.4735 1063.04 25.3089 1062.79 25.0904 1062.6 C 24.8719 1062.41 24.5995 1062.32 24.2733 1062.32 C 23.944 1062.32 23.667 1062.41 23.4423 1062.6 C 23.2207 1062.79 23.053 1063.04 22.9391 1063.37 C 22.8283 1063.69 22.7729 1064.06 22.7729 1064.47 C 22.7729 1064.88 22.8283 1065.25 22.9391 1065.57 C 23.053 1065.89 23.2207 1066.15 23.4423 1066.34 C 23.667 1066.52 23.944 1066.62 24.2733 1066.62 Z M 34.9281 1058.31 L 35.5282 1059.59 C 35.3282 1059.75 35.1066 1059.88 34.8635 1059.96 C 34.6203 1060.04 34.3295 1060.09 33.9909 1060.11 C 33.6555 1060.14 33.2462 1060.15 32.763 1060.16 C 32.2151 1060.17 31.7689 1060.26 31.4242 1060.42 C 31.0795 1060.59 30.8179 1060.86 30.6394 1061.22 C 30.4609 1061.58 30.3439 1062.05 30.2885 1062.64 H 30.3578 C 30.5701 1062.2 30.8687 1061.87 31.2534 1061.63 C 31.6412 1061.39 32.1197 1061.27 32.6891 1061.27 C 33.2923 1061.27 33.8201 1061.41 34.2725 1061.67 C 34.728 1061.94 35.082 1062.32 35.3343 1062.81 C 35.5867 1063.31 35.7129 1063.9 35.7129 1064.59 C 35.7129 1065.31 35.5713 1065.94 35.2882 1066.47 C 35.0081 1067 34.6096 1067.41 34.0925 1067.7 C 33.5755 1067.99 32.9599 1068.14 32.2459 1068.14 C 31.5288 1068.14 30.9102 1067.99 30.3901 1067.69 C 29.873 1067.38 29.473 1066.94 29.1898 1066.35 C 28.9097 1065.76 28.7697 1065.04 28.7697 1064.18 V 1063.6 C 28.7697 1061.89 29.1021 1060.63 29.7669 1059.8 C 30.4316 1058.98 31.4088 1058.56 32.6983 1058.55 C 33.0492 1058.54 33.3662 1058.54 33.6493 1058.54 C 33.9325 1058.54 34.1802 1058.53 34.3926 1058.5 C 34.608 1058.47 34.7865 1058.4 34.9281 1058.31 Z M 32.2551 1066.62 C 32.5568 1066.62 32.8153 1066.54 33.0307 1066.38 C 33.2492 1066.22 33.417 1066 33.5339 1065.71 C 33.6539 1065.41 33.714 1065.06 33.714 1064.66 C 33.714 1064.25 33.6539 1063.91 33.5339 1063.63 C 33.417 1063.35 33.2492 1063.13 33.0307 1062.99 C 32.8122 1062.84 32.5506 1062.76 32.2459 1062.76 C 32.0182 1062.76 31.8135 1062.81 31.6319 1062.89 C 31.4503 1062.97 31.2949 1063.1 31.1657 1063.26 C 31.0395 1063.42 30.941 1063.62 30.8702 1063.85 C 30.8025 1064.09 30.7686 1064.36 30.7686 1064.66 C 30.7686 1065.26 30.8994 1065.74 31.161 1066.09 C 31.4257 1066.44 31.7904 1066.62 32.2551 1066.62 Z M 38.2508 1063.09 H 40.3698 C 41.3084 1063.09 42.0409 1063.31 42.5672 1063.76 C 43.0935 1064.21 43.3566 1064.81 43.3566 1065.55 C 43.3566 1066.04 43.2381 1066.47 43.0012 1066.84 C 42.7642 1067.2 42.4226 1067.49 41.9763 1067.7 C 41.53 1067.9 40.9945 1068 40.3698 1068 H 37.0182 V 1060.91 H 38.8971 V 1066.45 H 40.3698 C 40.6991 1066.45 40.9699 1066.37 41.1823 1066.2 C 41.3946 1066.04 41.5023 1065.83 41.5054 1065.57 C 41.5023 1065.29 41.3946 1065.07 41.1823 1064.9 C 40.9699 1064.72 40.6991 1064.63 40.3698 1064.63 H 38.2508 V 1063.09 Z M 44.1183 1068 V 1060.91 H 46.085 V 1068 H 44.1183 Z M 52.0748 1063.34 V 1064.9 H 47.7631 V 1063.34 H 52.0748 Z M 10.9155 1078.46 V 1076.91 H 17.3416 V 1078.46 H 15.0565 V 1084 H 13.1822 V 1078.46 H 10.9155 Z M 20.4127 1081.41 L 22.9656 1076.91 H 24.9046 V 1084 H 23.0303 V 1079.49 L 20.4866 1084 H 18.5338 V 1076.91 H 20.4127 V 1081.41 Z M 30.6359 1084 V 1078.45 H 29.3064 C 28.9463 1078.45 28.6724 1078.53 28.4846 1078.7 C 28.2969 1078.87 28.2046 1079.06 28.2077 1079.29 C 28.2046 1079.52 28.2938 1079.72 28.4754 1079.88 C 28.6601 1080.03 28.9309 1080.11 29.2879 1080.11 H 31.2915 V 1081.44 H 29.2879 C 28.6816 1081.44 28.1569 1081.35 27.7137 1081.17 C 27.2705 1080.98 26.9289 1080.72 26.6888 1080.39 C 26.4488 1080.06 26.3303 1079.68 26.3334 1079.24 C 26.3303 1078.77 26.4488 1078.37 26.6888 1078.02 C 26.9289 1077.67 27.272 1077.4 27.7183 1077.2 C 28.1676 1077.01 28.697 1076.91 29.3064 1076.91 H 32.4687 V 1084 H 30.6359 Z M 26.1302 1084 L 28.1015 1080.31 H 29.9804 L 28.0138 1084 H 26.1302 Z" fill="white"/>
</svg>